<svg xmlns="http://www.w3.org/2000/svg" id="_x33_0" enable-background="new 0 0 64 64" height="18"
                            viewBox="0 0 64 64" width="18">
                            <g>
                                <path fill="#414447" d="m44.294 27.265c-.446.451-1.003.788-1.626.987l.911 2.004 2.576-2.061z" />
                                <path fill="#414447" d="m48.673 29.819-.673-.538-.673.538.394 1.181h.558z" />
                                <path fill="#414447" 
                                    d="m53 17v-4c0-.552-.449-1-1-1h-4c-1.222 0-2.275-.734-2.742-1.784-1.33.34-2.258 1.533-2.258 2.907v3.877c0 2.757 2.243 5 5 5s5-2.243 5-5z" />
                                <path fill="#414447" d="m50.337 31.151-.31.93.42 2.519 1.121-2.465z" />
                                <path fill="#414447" 
                                    d="m50.709 25.528c-.027-.097-.061-.192-.081-.292l-.327-1.632c-.722.252-1.494.396-2.301.396s-1.579-.144-2.301-.397l-.327 1.632c-.02.1-.054.195-.081.292l2.709 1.355z" />
                                <path fill="#414447" d="m48.82 37-.667-4h-.306l-.667 4z" />
                                <path fill="#414447" d="m45.973 32.081-.31-.93-1.231.984 1.121 2.465z" />
                                <path fill="#414447" 
                                    d="m41 12h.143c.415-1.8 1.789-3.264 3.644-3.728l.324-.081c.353-1.262 1.515-2.191 2.889-2.191h1v2h-1c-.551 0-1 .448-1 1s.449 1 1 1h4c1.302 0 2.402.839 2.816 2h.184c.535 0 1.045.11 1.512.301l.142-.425c.229-.689.346-1.407.346-2.133 0-3.718-3.025-6.743-6.744-6.743h-2.651c-1.922 0-3.707.955-4.773 2.555l-.214.321-1.464.366c-1.269.318-2.154 1.451-2.154 2.758 0 1.045.313 2.352.578 3.273.443-.169.919-.273 1.422-.273z" />
                                <path fill="#414447" d="m55 14v3c0 .34-.033.672-.08 1h.08c1.103 0 2-.897 2-2s-.897-2-2-2z" />
                                <path fill="#414447" d="m33 34.738c0-1.339.342-2.613.94-3.738h-4.659l1.5 6h2.219z" />
                                <path fill="#414447" d="m40.668 28.686-.845.169c-2.795.559-4.823 3.034-4.823 5.883v2.262h9.447z" />
                                <path fill="#414447" 
                                    d="m39.431 26.895 2.412-.482c.794-.159 1.41-.775 1.569-1.569l.443-2.215c-.923-.682-1.671-1.583-2.17-2.628h-.685c-2.206 0-4-1.794-4-4 0-.933.334-1.78.871-2.461-.306-.953-.871-2.932-.871-4.54 0-.711.168-1.385.448-2h-32.448v22h30.444c1.074-1.042 2.44-1.796 3.987-2.105zm-4.431-5.895h-8v6h-14v-6h-6v-12h12v6h4v-4h12z" />
                                <path fill="#414447" 
                                    d="m56.177 28.855-.845-.169-3.779 8.314h9.447v-2.262c0-2.849-2.028-5.324-4.823-5.883z" />
                                <path fill="#414447" d="m19 21h-4v4h10v-8h-6z" />
                                <path fill="#414447" d="m14.781 31-1.5 6h2.938l1.5-6z" />
                                <path fill="#414447" d="m53.332 28.253c-.623-.199-1.18-.536-1.626-.987l-1.861.93 2.576 2.061z" />
                                <path fill="#414447" d="m9 11h8v8h-8z" />
                                <path fill="#414447" d="m27 19h6v-6h-8v2h2z" />
                                <path fill="#414447" d="m41 18h.08c-.047-.328-.08-.66-.08-1v-3c-1.103 0-2 .897-2 2s.897 2 2 2z" />
                                <path fill="#414447" 
                                    d="m50.039 54.711c-.014.096-.039.189-.039.289 0 1.103.897 2 2 2s2-.897 2-2c0-.1-.025-.193-.039-.289-.63.184-1.292.289-1.961.289s-1.33-.105-1.961-.289z" />
                                <path fill="#414447" 
                                    d="m55.971 55.284c-.148 2.071-1.863 3.716-3.971 3.716-2.109 0-3.824-1.646-3.971-3.718-2.623.762-4.563 2.995-4.95 5.718h17.851c-.388-2.723-2.336-4.953-4.959-5.716z" />
                                <path fill="#414447" 
                                    d="m57 48v-1c0-2.206-1.794-4-4-4h-2c-2.206 0-4 1.794-4 4v1c0 1.927 1.129 3.703 2.876 4.524 1.298.625 2.958.621 4.24.004 1.755-.825 2.884-2.601 2.884-4.528z" />
                                <path fill="#414447" 
                                    d="m32 53c2.757 0 5-2.243 5-5v-1c0-2.206-1.794-4-4-4h-2c-2.206 0-4 1.794-4 4v1c0 2.757 2.243 5 5 5z" />
                                <path fill="#414447" d="m14 55h-4c-3.521 0-6.442 2.612-6.929 6h17.857c-.486-3.388-3.407-6-6.928-6z" />
                                <path fill="#414447" d="m14 43h-7v5c0 2.757 2.243 5 5 5s5-2.243 5-5v-2c0-1.654-1.346-3-3-3z" />
                                <path fill="#414447" d="m34 55h-4c-3.519 0-6.432 2.614-6.92 6h17.84c-.488-3.386-3.401-6-6.92-6z" />
                            </g>
                        </svg>