<svg xmlns="http://www.w3.org/2000/svg" id="Capa_1" enable-background="new 0 0 512 512" height="18"
                            viewBox="0 0 512 512" width="18">
                            <g>
                                <path fill="#414447" 
                                    d="m51 512h-35c-8.284 0-15-6.716-15-15v-170c0-8.284 6.716-15 15-15h35c8.284 0 15 6.716 15 15v170c0 8.284-6.716 15-15 15z" />
                                <g>
                                    <path fill="#414447" 
                                        d="m275.738 0h-8.552c-.003 0-.006 0-.01 0-28.218 0-51.176 28.895-51.176 64.412 0 .448.013.893.02 1.34 10.684-6.192 22.912-10.001 35.966-10.649 2.788-21.297 11.347-40.41 23.752-55.103z" />
                                    <path fill="#414447" 
                                        d="m189.26 90.959c-2.151-8.568-3.26-17.497-3.26-26.547 0-24.875 8.319-47.53 21.886-64.412h-141.886c-35.841 0-65 33.645-65 75s29.159 75 65 75h111.431c-.926-4.862-1.431-9.872-1.431-15 0-16.263 4.89-31.4 13.26-44.041z" />
                                    <path fill="#414447" 
                                        d="m351 75c0-29.354 10.959-55.927 28.587-75h-42.52c-27.924 0-51.14 25.724-55.372 59.258 31.541 10.73 54.305 40.617 54.305 75.742 0 5.128-.504 10.138-1.431 15h45.018c-17.628-19.073-28.587-45.646-28.587-75z" />
                                </g>
                                <path fill="#414447" d="m256 185c-27.57 0-50-22.43-50-50s22.43-50 50-50 50 22.43 50 50-22.43 50-50 50z" />
                                <g>
                                    <path fill="#414447" 
                                        d="m221 206.921v58.079c0 6.61 4.327 12.441 10.653 14.356 6.325 1.916 13.161-.536 16.827-6.036l7.52-11.279 7.52 11.279c2.834 4.251 7.56 6.681 12.481 6.681 1.446 0 2.909-.209 4.346-.645 6.326-1.915 10.653-7.746 10.653-14.356v-58.079c-10.579 5.169-22.455 8.079-35 8.079s-24.421-2.91-35-8.079z" />
                                </g>
                                <g>
                                    <path fill="#414447" 
                                        d="m490.589 319.709c-12.587-5.359-26.536-2.798-36.401 6.686l-53.474 51.417c-2.934 30.366-28.591 54.188-59.714 54.188h-90c-8.284 0-15-6.716-15-15s6.716-15 15-15h89.362c16.324 0 30.14-12.775 30.625-29.092.503-16.954-13.143-30.908-29.987-30.908h-80.458l-36.948-24.632c-15.081-10.054-32.633-15.368-50.758-15.368-20.699 0-41 7.121-57.162 20.052l-19.674 15.739v144.869l95.689 28.707c1.398.42 2.851.633 4.311.633h151.117c29.344 0 56.57-13.233 74.7-36.307l82.014-104.38c4.623-5.885 7.169-13.247 7.169-20.73 0-13.684-7.821-25.514-20.411-30.874z" />
                                </g>
                                <g>
                                    <path  fill="#414447" d="m431 90h-48.692c5.046 28.568 24.216 51.262 48.692 57.962z" />
                                    <path fill="#414447" 
                                        d="m446 0c-31.39 0-57.653 25.808-63.692 60h63.692c8.284 0 15 6.716 15 15v72.962c28.63-7.837 50-37.565 50-72.962 0-41.355-29.159-75-65-75z" />
                                </g>
                            </g>
                        </svg>