<svg xmlns="http://www.w3.org/2000/svg" id="Layer_3" enable-background="new 0 0 64 64" height="18"
                            viewBox="0 0 64 64" width="18">
                            <path fill="#414447" 
                                d="m6.858 49.728 1.728-1.728.327-.327c-.212.211-.493.327-.792.327-.618 0-1.121-.503-1.121-1.121 0-.295.12-.584.328-.793l9.379-9.379-1.414-1.414-9.379 9.379c-.581.581-.914 1.385-.914 2.207 0 1.271.766 2.362 1.858 2.849z" />
                            <path fill="#414447" d="m29 4.414-4.586 4.586h4.586z" />
                            <path fill="#414447" d="m10.272 38.757h23.456v6.485h-23.456z"
                                transform="matrix(.707 -.707 .707 .707 -23.255 27.859)" />
                            <path fill="#414447" 
                                d="m36.961 27.039c-2.764.209-5.359 1.257-7.497 3.011l4.486 4.486c1.755-2.137 2.802-4.732 3.011-7.497z" />
                            <path fill="#414447" 
                                d="m3.95 55.465c-.613.612-.95 1.426-.95 2.293 0 1.788 1.455 3.242 3.243 3.242.866 0 1.68-.337 2.293-.95l6.05-6.05-4.586-4.586z" />
                            <circle cx="52" cy="12" r="1" />
                            <circle cx="44" cy="12" r="1" />
                            <circle cx="36" cy="12" r="1" />
                            <path fill="#414447" 
                                d="m27 17h30v-10h-26v4h-4zm25-8c1.654 0 3 1.346 3 3s-1.346 3-3 3-3-1.346-3-3 1.346-3 3-3zm-8 0c1.654 0 3 1.346 3 3s-1.346 3-3 3-3-1.346-3-3 1.346-3 3-3zm-8 0c1.654 0 3 1.346 3 3s-1.346 3-3 3-3-1.346-3-3 1.346-3 3-3z" />
                            <path fill="#414447" 
                                d="m31 3v2h28v14h-34v-8h-2v22.586l4.05-4.05c2.926-2.926 6.814-4.536 10.95-4.536h1v1c0 4.137-1.611 8.025-4.536 10.949l-11.464 11.465v4.586h38v-50zm-4 24h-2v-2h2zm0-4h-2v-2h2zm14 12h14v2h-14zm18 16c-1.709 0-2.524-1.451-3.119-2.51-.569-1.012-.891-1.49-1.377-1.49s-.808.478-1.378 1.49c-.595 1.059-1.411 2.51-3.121 2.51s-2.526-1.45-3.123-2.51c-.57-1.013-.892-1.49-1.38-1.49-.487 0-.81.478-1.379 1.49-.596 1.06-1.413 2.51-3.123 2.51h-1.211c-.714 0-1.406-.209-2-.605l-1.652-1.102c-1.661.909-3.789 1.707-6.137 1.707v-2c1.539 0 2.983-.422 4.224-.982l-.618-.412c-1.006-.671-1.606-1.793-1.606-3.001 0-1.988 1.617-3.605 3.605-3.605h.789c1.989 0 3.606 1.617 3.606 3.605v.207c0 1.107-.49 2.132-1.345 2.809-.197.157-.419.326-.666.503l.909.606c.265.177.572.27.891.27h1.211c.488 0 .81-.478 1.38-1.49.596-1.06 1.413-2.51 3.123-2.51s2.527 1.45 3.123 2.51c.57 1.013.892 1.49 1.379 1.49s.809-.478 1.378-1.49c.596-1.06 1.412-2.51 3.121-2.51s2.524 1.451 3.12 2.511c.569 1.011.891 1.489 1.376 1.489zm0-10h-14v-2h14zm0-4h-2v-2h2zm0-4h-18v-2h18zm0-4h-18v-2h18zm0-4h-18v-2h18z" />
                            <path fill="#414447" 
                                d="m38 44.605c0-.885-.72-1.605-1.605-1.605h-.789c-.886 0-1.606.72-1.606 1.605 0 .538.267 1.037.715 1.336l1.482.988c.476-.311.886-.614 1.215-.875.374-.296.588-.748.588-1.242z" />
                            </svg>